<?xml version="1.0" encoding="utf-8"?>
<svg xmlns="http://www.w3.org/2000/svg" viewBox="0 0 48 48" width="48" height="48">
  <path d="M32.5 5C30.019 5 28 7.019 28 9.5L28 10L5.5 10 A 1.50015 1.50015 0 1 0 5.5 13L28 13L28 13.5C28 15.981 30.019 18 32.5 18C34.981 18 37 15.981 37 13.5L37 13L42.5 13 A 1.50015 1.50015 0 1 0 42.5 10L37 10L37 9.5C37 7.019 34.981 5 32.5 5 z M 15.5 17.5C13.019 17.5 11 19.519 11 22L11 22.5L5.5 22.5 A 1.50015 1.50015 0 1 0 5.5 25.5L11 25.5L11 26C11 28.481 13.019 30.5 15.5 30.5C17.981 30.5 20 28.481 20 26L20 25.5L42.5 25.5 A 1.50015 1.50015 0 1 0 42.5 22.5L20 22.5L20 22C20 19.519 17.981 17.5 15.5 17.5 z M 30.5 30C28.019 30 26 32.019 26 34.5L26 35L5.5 35 A 1.50015 1.50015 0 1 0 5.5 38L26 38L26 38.5C26 40.981 28.019 43 30.5 43C32.981 43 35 40.981 35 38.5L35 38L42.5 38 A 1.50015 1.50015 0 1 0 42.5 35L35 35L35 34.5C35 32.019 32.981 30 30.5 30 z" fill="#FFFFFF" />
</svg>