<?xml version="1.0" encoding="utf-8"?>
<svg xmlns="http://www.w3.org/2000/svg" viewBox="0 0 48 48" width="48" height="48">
  <path d="M32.5 6C30.791667 6 29.320482 6.6946334 28.378906 7.7539062C27.794645 8.411201 27.467795 9.1911149 27.255859 10L5.5 10 A 1.50015 1.50015 0 1 0 5.5 13L27.255859 13C27.467795 13.808885 27.794645 14.588799 28.378906 15.246094C29.320482 16.305367 30.791667 17 32.5 17C34.208333 17 35.679518 16.305367 36.621094 15.246094C37.205355 14.588799 37.532205 13.808885 37.744141 13L42.5 13 A 1.50015 1.50015 0 1 0 42.5 10L37.744141 10C37.532205 9.1911149 37.205355 8.411201 36.621094 7.7539062C35.679518 6.6946334 34.208333 6 32.5 6 z M 32.5 9C33.458333 9 33.987149 9.3053665 34.378906 9.7460938C34.770664 10.186821 35 10.833333 35 11.5C35 12.166667 34.770664 12.813179 34.378906 13.253906C33.987149 13.694633 33.458333 14 32.5 14C31.541667 14 31.012851 13.694633 30.621094 13.253906C30.229336 12.813179 30 12.166667 30 11.5C30 10.833333 30.229336 10.186821 30.621094 9.7460938C31.012851 9.3053665 31.541667 9 32.5 9 z M 15.5 18.5C13.791667 18.5 12.320482 19.194633 11.378906 20.253906C10.794645 20.911201 10.467795 21.691115 10.255859 22.5L5.5 22.5 A 1.50015 1.50015 0 1 0 5.5 25.5L10.255859 25.5C10.467795 26.308885 10.794645 27.088799 11.378906 27.746094C12.320482 28.805367 13.791667 29.5 15.5 29.5C17.208333 29.5 18.679518 28.805367 19.621094 27.746094C20.205355 27.088799 20.532205 26.308885 20.744141 25.5L42.5 25.5 A 1.50015 1.50015 0 1 0 42.5 22.5L20.744141 22.5C20.532205 21.691115 20.205355 20.911201 19.621094 20.253906C18.679518 19.194633 17.208333 18.5 15.5 18.5 z M 15.5 21.5C16.458333 21.5 16.987149 21.805367 17.378906 22.246094C17.770664 22.686821 18 23.333333 18 24C18 24.666667 17.770664 25.313179 17.378906 25.753906C16.987149 26.194633 16.458333 26.5 15.5 26.5C14.541667 26.5 14.012851 26.194633 13.621094 25.753906C13.229336 25.313179 13 24.666667 13 24C13 23.333333 13.229336 22.686821 13.621094 22.246094C14.012851 21.805367 14.541667 21.5 15.5 21.5 z M 30.5 31C28.791667 31 27.320482 31.694633 26.378906 32.753906C25.794645 33.411201 25.467795 34.191115 25.255859 35L5.5 35 A 1.50015 1.50015 0 1 0 5.5 38L25.255859 38C25.467795 38.808885 25.794645 39.588799 26.378906 40.246094C27.320482 41.305367 28.791667 42 30.5 42C32.208333 42 33.679518 41.305367 34.621094 40.246094C35.205355 39.588799 35.532205 38.808885 35.744141 38L42.5 38 A 1.50015 1.50015 0 1 0 42.5 35L35.744141 35C35.532205 34.191115 35.205355 33.411201 34.621094 32.753906C33.679518 31.694633 32.208333 31 30.5 31 z M 30.5 34C31.458333 34 31.987149 34.305367 32.378906 34.746094C32.770664 35.186821 33 35.833333 33 36.5C33 37.166667 32.770664 37.813179 32.378906 38.253906C31.987149 38.694633 31.458333 39 30.5 39C29.541667 39 29.012851 38.694633 28.621094 38.253906C28.229336 37.813179 28 37.166667 28 36.5C28 35.833333 28.229336 35.186821 28.621094 34.746094C29.012851 34.305367 29.541667 34 30.5 34 z" fill="#FFFFFF" />
</svg>