<?xml version="1.0" encoding="utf-8"?>
<svg xmlns="http://www.w3.org/2000/svg" viewBox="0 0 48 48" width="48" height="48">
  <path d="M12 3.9882812 A 1.50015 1.50015 0 0 0 11.193359 4.2363281C7.9962901 6.2778688 5.2778688 8.9962901 3.2363281 12.193359 A 1.50015 1.50015 0 1 0 5.7636719 13.806641C7.5701312 10.97771 9.9777099 8.5701312 12.806641 6.7636719 A 1.50015 1.50015 0 0 0 12 3.9882812 z M 35.955078 3.9882812 A 1.50015 1.50015 0 0 0 35.193359 6.7636719C38.02229 8.5701312 40.429869 10.97771 42.236328 13.806641 A 1.50015 1.50015 0 1 0 44.763672 12.193359C42.722131 8.9962901 40.00371 6.2778688 36.806641 4.2363281 A 1.50015 1.50015 0 0 0 35.955078 3.9882812 z M 24 6C13.524351 6 5 14.524358 5 25C5 30.716982 7.5922839 35.791057 11.601562 39.277344L9.4394531 41.439453 A 1.50015 1.50015 0 1 0 11.560547 43.560547L14.023438 41.097656C16.931353 42.906678 20.33091 44 24 44C27.66909 44 31.068647 42.906678 33.976562 41.097656L36.439453 43.560547 A 1.50015 1.50015 0 1 0 38.560547 41.439453L36.398438 39.277344C40.407716 35.791057 43 30.716982 43 25C43 14.524358 34.475649 6 24 6 z M 24 9C32.85433 9 40 16.145676 40 25C40 33.854324 32.85433 41 24 41C15.14567 41 8 33.854324 8 25C8 16.145676 15.14567 9 24 9 z M 23.976562 16.978516 A 1.50015 1.50015 0 0 0 22.5 18.5L22.5 23.5L17.5 23.5 A 1.50015 1.50015 0 1 0 17.5 26.5L22.5 26.5L22.5 31.5 A 1.50015 1.50015 0 1 0 25.5 31.5L25.5 26.5L30.5 26.5 A 1.50015 1.50015 0 1 0 30.5 23.5L25.5 23.5L25.5 18.5 A 1.50015 1.50015 0 0 0 23.976562 16.978516 z" fill="#FFFFFF" />
</svg>