<?xml version="1.0" encoding="utf-8"?>
<svg xmlns="http://www.w3.org/2000/svg" viewBox="0 0 48 48" width="48" height="48">
  <path d="M13.203125 2.5703125 A 1.50015 1.50015 0 0 0 12.65625 2.6523438C6.1982216 4.7851984 4.4941406 10.771484 4.4941406 10.771484 A 1.5001682 1.5001682 0 1 0 7.3867188 11.568359C7.3867188 11.568359 8.5436848 7.1710984 13.597656 5.5019531 A 1.50015 1.50015 0 0 0 13.203125 2.5703125 z M 29.230469 3.8535156C28.590719 3.8535156 27.951391 4.0993906 27.462891 4.5878906L23.21875 8.8300781C22.60975 9.4390781 22.38025 10.284313 22.53125 11.070312C23.72025 11.647312 24.959187 12.249453 26.117188 12.814453C26.345188 12.698453 26.564859 12.556234 26.755859 12.365234L30.998047 8.1230469C31.975047 7.1460469 31.975047 5.5648906 30.998047 4.5878906C30.509547 4.0993906 29.870219 3.8535156 29.230469 3.8535156 z M 34.179688 8.8046875C33.539938 8.8046875 32.900609 9.0486094 32.412109 9.5371094L28.169922 13.779297C28.161922 13.787297 28.154484 13.797641 28.146484 13.806641C29.819484 14.623641 31.003906 15.203125 31.003906 15.203125C31.259906 15.329125 31.449391 15.557031 31.525391 15.832031C31.637391 16.231031 31.699672 16.774141 31.638672 17.369141C31.659672 17.349141 31.684078 17.336406 31.705078 17.316406L35.947266 13.072266C36.924266 12.095266 36.924266 10.514109 35.947266 9.5371094C35.458766 9.0486094 34.819437 8.8046875 34.179688 8.8046875 z M 16.699219 11.070312C15.241828 11.008953 13.783203 11.665422 12.845703 12.888672C9.5257031 17.218672 8.5575937 19.491594 8.4335938 22.308594C8.3745938 23.629594 8.5284687 24.876438 8.8554688 26.023438L5.5566406 29.322266C4.9626406 29.916266 4.9626406 30.878656 5.5566406 31.472656L16.839844 42.755859C17.433844 43.349859 18.396234 43.349859 18.990234 42.755859L22.794922 38.953125C23.509922 39.088125 24.245094 39.153531 24.996094 39.144531C28.012094 39.106531 30.881031 37.898375 33.082031 35.734375L37.544922 31.271484C36.699922 31.104484 35.892281 30.696969 35.238281 30.042969C33.860281 28.664969 33.582141 26.614312 34.369141 24.945312C33.395141 24.833313 32.449125 24.425687 31.703125 23.679688C30.698125 22.674688 30.289547 21.310094 30.435547 19.996094C30.402547 20.000094 30.368937 19.998953 30.335938 20.001953C29.923938 20.385953 29.402469 20.730047 28.730469 20.998047C28.063469 21.263047 27.316766 21.385328 26.509766 21.361328C25.450766 21.328328 23.808062 21.131734 22.289062 20.927734C24.588062 27.500734 19.992406 31.150453 19.941406 31.189453C19.538406 31.500453 18.973047 31.456469 18.623047 31.105469C18.593047 31.075469 18.564109 31.041813 18.537109 31.007812C18.200109 30.570812 18.282703 29.942469 18.720703 29.605469C18.885703 29.474469 22.833109 26.260531 19.787109 20.144531C19.622109 19.812531 19.654094 19.414281 19.871094 19.113281C20.087094 18.812281 20.453312 18.656031 20.820312 18.707031L21.033203 18.736328C22.710203 18.969328 25.245313 19.322281 26.570312 19.363281C27.102313 19.380281 27.581234 19.305578 27.990234 19.142578C29.532234 18.527578 29.702156 17.405437 29.660156 16.773438C28.137156 16.028437 23.180781 13.602109 19.675781 11.912109C19.125781 11.738109 18.599719 11.560953 18.136719 11.376953C17.670469 11.191453 17.185016 11.090766 16.699219 11.070312 z M 39.128906 13.753906C38.489156 13.753906 37.849828 13.997828 37.361328 14.486328L33.117188 18.728516C32.141188 19.705516 32.141188 21.289625 33.117188 22.265625C34.094187 23.242625 35.677297 23.241625 36.654297 22.265625L40.896484 18.021484C41.873484 17.044484 41.873484 15.463328 40.896484 14.486328C40.407984 13.997828 39.768656 13.753906 39.128906 13.753906 z M 42.664062 20.119141C42.024313 20.119141 41.384984 20.363062 40.896484 20.851562L36.652344 25.09375C35.676344 26.06975 35.675344 27.653859 36.652344 28.630859C37.629344 29.607859 39.212453 29.606859 40.189453 28.630859L44.431641 24.386719C45.407641 23.409719 45.407641 21.827562 44.431641 20.851562C43.943141 20.363062 43.303812 20.119141 42.664062 20.119141 z M 43.0625 32.558594 A 1.50015 1.50015 0 0 0 41.681641 33.677734C41.681641 33.677734 40.524675 38.076949 35.470703 39.746094 A 1.50015 1.50015 0 1 0 36.412109 42.59375C42.870138 40.460895 44.572266 34.474609 44.572266 34.474609 A 1.50015 1.50015 0 0 0 43.0625 32.558594 z" fill="#FFFFFF" />
</svg>