<?xml version="1.0" encoding="utf-8"?>
<svg xmlns="http://www.w3.org/2000/svg" viewBox="0 0 48 48" width="48" height="48">
  <path d="M13.203125 2.5703125 A 1.50015 1.50015 0 0 0 12.65625 2.6523438C6.1982216 4.7851984 4.4941406 10.771484 4.4941406 10.771484 A 1.5001682 1.5001682 0 1 0 7.3867188 11.568359C7.3867188 11.568359 8.5436848 7.1710984 13.597656 5.5019531 A 1.50015 1.50015 0 0 0 13.203125 2.5703125 z M 26.927734 6.8339844C25.772871 6.8339844 24.618526 7.2701456 23.746094 8.1425781L20.263672 11.626953C19.5989 11.363373 18.879656 11.084796 18.302734 10.847656L18.302734 10.849609C17.353808 10.459482 16.326589 10.410577 15.380859 10.666016C14.43513 10.921454 13.571469 11.481014 12.949219 12.300781C11.778352 13.841527 10.50723 15.713766 9.4941406 17.59375C8.4807891 19.474221 7.6793493 21.310101 7.6289062 23.117188C7.5856252 24.671693 7.9132395 26.201546 8.4804688 27.650391L5.3613281 30.769531 A 1.50015 1.50015 0 0 0 5.3613281 32.892578L16.675781 44.205078 A 1.50015 1.50015 0 0 0 18.796875 44.205078L22.052734 40.949219C23.651734 41.240566 25.247223 41.278073 26.654297 41.042969C28.333819 40.762342 29.739964 40.293756 30.761719 39.3125 A 1.50015 1.50015 0 0 0 30.783203 39.291016L38.595703 31.478516L40.009766 30.064453 A 1.5005306 1.5005306 0 0 0 40.017578 30.054688L42.130859 27.941406C43.875724 26.196541 43.875724 23.32299 42.130859 21.578125C41.622253 21.069518 41.013616 20.727711 40.369141 20.515625C40.880917 18.950886 40.536932 17.156073 39.302734 15.921875C38.659094 15.278234 37.860965 14.875807 37.023438 14.707031C37.18586 13.375618 36.779978 11.985056 35.767578 10.972656C34.895146 10.100224 33.738848 9.6640625 32.583984 9.6640625C32.106348 9.6640625 31.633333 9.757028 31.175781 9.90625C30.963765 9.2607838 30.620449 8.6516993 30.111328 8.1425781C29.238896 7.2701456 28.082598 6.8339844 26.927734 6.8339844 z M 26.927734 9.8164062C27.308712 9.8164062 27.690667 9.9660576 27.990234 10.265625C28.585676 10.861067 28.588101 11.775617 28 12.375C27.996352 12.378718 27.993927 12.383026 27.990234 12.386719L26.576172 13.800781L26.574219 13.800781 A 1.50015 1.50015 0 0 0 26.404297 14C25.374568 13.611929 24.506867 13.279424 23.3125 12.820312L25.867188 10.265625C26.166754 9.9660576 26.546757 9.8164062 26.927734 9.8164062 z M 32.583984 12.644531C32.964474 12.644531 33.344964 12.794182 33.644531 13.09375C34.243666 13.692885 34.243666 14.615709 33.644531 15.214844L32.939453 15.919922C32.939453 15.919922 32.9375 15.921875 32.9375 15.921875L31.253906 17.605469C31.246804 16.917822 31.119141 16.423828 31.119141 16.423828 A 1.50015 1.50015 0 0 0 30.195312 15.419922C30.195312 15.419922 29.570708 15.185464 29.470703 15.148438L30.111328 14.507812C30.114337 14.504804 30.116142 14.501062 30.119141 14.498047L31.523438 13.09375C31.823005 12.794182 32.203495 12.644531 32.583984 12.644531 z M 16.65625 13.503906C16.824785 13.515194 16.995572 13.554587 17.162109 13.623047C21.274501 15.313417 27.207821 17.500125 28.226562 17.876953C28.220263 17.965633 28.246039 17.955363 28.224609 18.056641C28.126509 18.521187 27.991037 18.973922 26.916016 19.402344C26.573559 19.538418 26.16394 19.60262 25.699219 19.587891 A 1.50015 1.50015 0 0 0 25.697266 19.587891C24.468256 19.550273 21.734509 19.177994 20.001953 18.9375 A 1.50015 1.50015 0 0 0 18.453125 21.091797C20.019175 24.237421 19.666317 26.346101 19.042969 27.800781C18.419621 29.255461 17.525391 29.935547 17.525391 29.935547 A 1.5005202 1.5005202 0 1 0 19.357422 32.3125C19.357422 32.3125 20.879129 31.133242 21.800781 28.982422C22.519102 27.306107 22.836141 24.952607 22.054688 22.1875C23.328277 22.352373 24.636036 22.558187 25.605469 22.587891C26.053293 22.601967 26.511586 22.569542 26.96875 22.486328C26.381226 24.086121 26.713698 25.961745 27.988281 27.236328C28.80346 28.05081 29.865875 28.46988 30.943359 28.523438C30.997448 29.600351 31.416454 30.661934 32.230469 31.476562C32.603966 31.850379 33.035217 32.127961 33.490234 32.341797L28.683594 37.148438C28.494348 37.330182 27.451681 37.867861 26.158203 38.083984C24.864726 38.300108 23.305854 38.290957 21.898438 37.917969 A 1.50015 1.50015 0 0 0 20.453125 38.306641L17.736328 41.023438L8.5429688 31.832031L11.265625 29.109375 A 1.50015 1.50015 0 0 0 11.527344 27.341797C10.884307 26.138458 10.587121 24.70197 10.628906 23.201172C10.652466 22.357258 11.225117 20.705608 12.134766 19.017578C13.044414 17.329549 14.245009 15.553262 15.337891 14.115234 A 1.50015 1.50015 0 0 0 15.337891 14.113281C15.661514 13.686932 16.150644 13.470042 16.65625 13.503906 z M 36.121094 17.59375C36.50173 17.59375 36.882073 17.743401 37.181641 18.042969C37.780776 18.642104 37.780776 19.564928 37.181641 20.164062L35.767578 21.578125L32.230469 25.113281L32.230469 25.115234C32.229147 25.116557 32.227882 25.117817 32.226562 25.119141C31.627507 25.711543 30.706267 25.709711 30.109375 25.113281C29.512004 24.514474 29.5118 23.592838 30.109375 22.994141L30.109375 22.992188L35.060547 18.042969C35.360114 17.743401 35.740458 17.59375 36.121094 17.59375 z M 38.949219 23.25C39.329855 23.25 39.710198 23.399651 40.009766 23.699219C40.608901 24.298354 40.608901 25.221178 40.009766 25.820312L37.933594 27.898438 A 1.5005306 1.5005306 0 0 0 37.888672 27.941406L36.474609 29.355469C35.875776 29.954302 34.951104 29.955474 34.353516 29.357422 A 1.50015 1.50015 0 0 0 34.353516 29.355469C33.755046 28.757 33.754423 27.835515 34.351562 27.236328C34.352227 27.235662 34.35285 27.235041 34.353516 27.234375L37.888672 23.699219C37.889702 23.698189 37.891546 23.698292 37.892578 23.697266C38.191668 23.399755 38.569891 23.25 38.949219 23.25 z M 43.0625 32.558594 A 1.50015 1.50015 0 0 0 41.681641 33.677734C41.681641 33.677734 40.524675 38.076949 35.470703 39.746094 A 1.50015 1.50015 0 1 0 36.412109 42.59375C42.870138 40.460895 44.572266 34.474609 44.572266 34.474609 A 1.50015 1.50015 0 0 0 43.0625 32.558594 z" fill="#D9D9D9" />
</svg>