<?xml version="1.0" encoding="utf-8"?>
<svg xmlns="http://www.w3.org/2000/svg" viewBox="0 0 48 48" width="48" height="48">
  <path d="M11.5 7C8.4802259 7 6 9.4802259 6 12.5L6 37.5C6 40.519774 8.4802259 43 11.5 43L36.5 43C39.519774 43 42 40.519774 42 37.5L42 12.5C42 9.4802259 39.519774 7 36.5 7L11.5 7 z M 11.5 10L36.5 10C37.898226 10 39 11.101774 39 12.5L39 37.5C39 38.898226 37.898226 40 36.5 40L11.5 40C10.101774 40 9 38.898226 9 37.5L9 12.5C9 11.101774 10.101774 10 11.5 10 z M 14.5 16.5 A 2 2 0 0 0 14.5 20.5 A 2 2 0 0 0 14.5 16.5 z M 20.5 17 A 1.50015 1.50015 0 1 0 20.5 20L34.5 20 A 1.50015 1.50015 0 1 0 34.5 17L20.5 17 z M 14.5 23.5 A 2 2 0 0 0 14.5 27.5 A 2 2 0 0 0 14.5 23.5 z M 20.5 24 A 1.50015 1.50015 0 1 0 20.5 27L34.5 27 A 1.50015 1.50015 0 1 0 34.5 24L20.5 24 z M 14.5 30.5 A 2 2 0 0 0 14.5 34.5 A 2 2 0 0 0 14.5 30.5 z M 20.5 31 A 1.50015 1.50015 0 1 0 20.5 34L34.5 34 A 1.50015 1.50015 0 1 0 34.5 31L20.5 31 z" fill="#D9D9D9" />
</svg>