<?xml version="1.0" encoding="utf-8"?>
<svg xmlns="http://www.w3.org/2000/svg" viewBox="0 0 48 48" width="48" height="48">
  <path d="M18 24c-5.514 0-10-4.486-10-10S12.486 4 18 4s10 4.486 10 10S23.514 24 18 24zM44.105 32.118L45 31.257c-.401-1.147-.981-2.205-1.706-3.139l-1.204.356c-2.195.649-4.485-.673-5.022-2.898l-.345-1.432C36.162 24.049 35.587 24 35 24c-.587 0-1.162.049-1.723.144l-.345 1.432c-.537 2.225-2.827 3.547-5.022 2.898l-1.204-.356c-.724.933-1.305 1.992-1.706 3.139l.895.861c1.635 1.574 1.635 4.191 0 5.765L25 38.743c.401 1.147.981 2.205 1.706 3.139l1.204-.356c2.195-.649 4.485.673 5.022 2.898l.345 1.432C33.838 45.951 34.414 46 35 46c.587 0 1.162-.049 1.723-.144l.345-1.432c.537-2.225 2.827-3.547 5.022-2.898l1.204.356c.724-.933 1.305-1.992 1.706-3.139l-.895-.861C42.47 36.309 42.47 33.691 44.105 32.118zM35 38c-1.657 0-3-1.343-3-3 0-1.657 1.343-3 3-3 1.657 0 3 1.343 3 3C38 36.657 36.657 38 35 38zM22 35c0-2.58.761-4.978 2.057-7H6.722C4.67 28 3 29.785 3 31.979V33.5c0 3.281 1.696 6.132 4.776 8.027C10.367 43.122 13.82 44 17.5 44c2.55 0 4.982-.43 7.103-1.22C22.976 40.609 22 37.922 22 35z" fill="#FFFFFF" />
</svg>