<?xml version="1.0" encoding="utf-8"?>
<svg xmlns="http://www.w3.org/2000/svg" viewBox="0 0 48 48" width="48" height="48">
  <path d="M18 4C12.494917 4 8 8.494921 8 14C8 19.505079 12.494917 24 18 24C23.505083 24 28 19.505079 28 14C28 8.494921 23.505083 4 18 4 z M 18 7C21.883764 7 25 10.116238 25 14C25 17.883762 21.883764 21 18 21C14.116236 21 11 17.883762 11 14C11 10.116238 14.116236 7 18 7 z M 35 24C34.413 24 33.838344 24.049531 33.277344 24.144531L32.931641 25.576172C32.394641 27.801172 30.105156 29.123609 27.910156 28.474609L26.705078 28.117188C25.981078 29.050187 25.401 30.110813 25 31.257812L25.894531 32.117188C27.529531 33.691187 27.529531 36.308813 25.894531 37.882812L25 38.742188C25.401 39.889187 25.980078 40.948812 26.705078 41.882812L27.910156 41.525391C30.105156 40.876391 32.394641 42.198828 32.931641 44.423828L33.277344 45.855469C33.838344 45.950469 34.414 46 35 46C35.587 46 36.161656 45.950469 36.722656 45.855469L37.068359 44.423828C37.605359 42.198828 39.894844 40.876391 42.089844 41.525391L43.294922 41.882812C44.018922 40.949813 44.599 39.889187 45 38.742188L44.105469 37.882812C42.470469 36.309812 42.470469 33.690188 44.105469 32.117188L45 31.257812C44.599 30.110813 44.019922 29.051187 43.294922 28.117188L42.089844 28.474609C39.894844 29.123609 37.605359 27.801172 37.068359 25.576172L36.722656 24.144531C36.161656 24.049531 35.587 24 35 24 z M 6.7226562 28C4.6706562 28 3 29.784516 3 31.978516L3 33.5C3 36.781 4.6953906 39.632344 7.7753906 41.527344C10.366391 43.122344 13.82 44 17.5 44C20.05 44 22.483516 43.569297 24.603516 42.779297C23.996516 41.969297 23.473406 41.093344 23.066406 40.152344C21.330406 40.719344 19.393 41 17.5 41C11.961 41 6 38.653 6 33.5L6 31.978516C6 31.447516 6.3316562 31 6.7226562 31L22.634766 31C22.979766 29.932 23.463594 28.927 24.058594 28L6.7226562 28 z M 35 32C36.657 32 38 33.343 38 35C38 36.657 36.657 38 35 38C33.343 38 32 36.657 32 35C32 33.343 33.343 32 35 32 z" fill="#D9D9D9" />
</svg>