<?xml version="1.0" encoding="utf-8"?>
<svg xmlns="http://www.w3.org/2000/svg" viewBox="0 0 48 48" width="48" height="48">
  <path d="M24 4C12.972292 4 4 12.972292 4 24C4 35.027708 12.972292 44 24 44C35.027708 44 44 35.027708 44 24C44 12.972292 35.027708 4 24 4 z M 24 7C33.406292 7 41 14.593708 41 24C41 33.406292 33.406292 41 24 41C14.593708 41 7 33.406292 7 24C7 14.593708 14.593708 7 24 7 z M 19.414062 15.177734C18.157794 15.255922 17 16.294687 17 17.65625L17 30.34375C17 32.159167 19.058191 33.400567 20.664062 32.556641L20.664062 32.554688L32.716797 26.210938L32.716797 26.212891C34.422794 25.316763 34.422976 22.684725 32.71875 21.787109L32.716797 21.787109L20.664062 15.443359C20.262595 15.232378 19.832819 15.151672 19.414062 15.177734 z M 20 18.482422L30.480469 24L20 29.515625L20 18.482422 z" fill="#FFFFFF" />
</svg>