<?xml version="1.0" encoding="utf-8"?>
<svg xmlns="http://www.w3.org/2000/svg" viewBox="0 0 48 48" width="48" height="48">
  <path d="M26.449219 7.1484375C24.684051 7.2292005 23 8.6286274 23 10.601562L23 19.087891L9.7558594 7.9257812C9.2072253 7.463596 8.5721271 7.220121 7.9296875 7.1601562C6.0023687 6.9802621 4 8.4492698 4 10.601562L4 37.398438C4 40.268161 7.5613229 41.92296 9.7558594 40.074219L23 28.912109L23 37.398438C23 40.268161 26.561323 41.92296 28.755859 40.074219L44.652344 26.675781C46.28886 25.296481 46.289693 22.702387 44.654297 21.322266 A 1.50015 1.50015 0 0 0 44.652344 21.322266L28.755859 7.9257812C28.070067 7.3480497 27.251568 7.111727 26.449219 7.1484375 z M 7.5214844 10.058594C7.6177922 10.080299 7.7203998 10.132936 7.8222656 10.21875L23 23.011719L23 24.988281L7.8222656 37.779297C7.4148021 38.122556 7 37.930712 7 37.398438L7 10.601562C7 10.335425 7.1031007 10.153858 7.2578125 10.082031C7.3351684 10.046116 7.4251765 10.036889 7.5214844 10.058594 z M 26.521484 10.058594C26.617792 10.080299 26.7204 10.132936 26.822266 10.21875L42.71875 23.615234C42.979307 23.835113 42.978234 24.16216 42.71875 24.380859L26.822266 37.779297C26.414802 38.122556 26 37.930712 26 37.398438L26 10.601562C26 10.335425 26.103101 10.153858 26.257812 10.082031C26.335169 10.046116 26.425176 10.036889 26.521484 10.058594 z" fill="#FFFFFF" />
</svg>