<?xml version="1.0" encoding="utf-8"?>
<svg xmlns="http://www.w3.org/2000/svg" viewBox="0 0 48 48" width="48" height="48">
  <path d="M10.476562 5.9785156 A 1.50015 1.50015 0 0 0 9 7.5L9 14.5 A 1.50015 1.50015 0 0 0 10.5 16L17.5 16 A 1.50015 1.50015 0 1 0 17.5 13L13.835938 13C16.507869 10.527304 20.062754 9 24 9C32.3024 9 39 15.6976 39 24C39 32.3024 32.3024 39 24 39C15.6976 39 9 32.3024 9 24C9 22.905578 9.1163262 21.840688 9.3378906 20.816406 A 1.50015 1.50015 0 1 0 6.40625 20.183594C6.1398144 21.415312 6 22.692422 6 24C6 33.9236 14.0764 42 24 42C33.9236 42 42 33.9236 42 24C42 14.0764 33.9236 6 24 6C19.395336 6 15.187216 7.7407783 12 10.59375L12 7.5 A 1.50015 1.50015 0 0 0 10.476562 5.9785156 z" fill="#FFFFFF" />
</svg>